# xmcd
#
# Track frame offsets:
#	150
#	12755
#	25752
#	39323
#	54015
#	67672
#	85595
#	100879
#	113450
#	126678
#	139933
#	150238
#	166044
#	177278
#
# Disc length: 2584 seconds
#
# Revision: 1
# Processed by: cddbd v1.5.2PL0 Copyright (c) Steve Scherf et al.
# Submitted via: audiograbber 1.83.01
#
DISCID=970a160e
DTITLE=Edmund Fox - Money In The Chair
DYEAR=1900
DGENRE=
TTITLE0=Money In The Chair
TTITLE1=Headed For A Fall
TTITLE2=Grandpa's Fiddle
TTITLE3=Life Ain't Like A Jukebox
TTITLE4=Little Town On The Shannon
TTITLE5=My Wedding Band (Is A Halo Of Gold)
TTITLE6=The Hand That Rocks The Cradle
TTITLE7=Tender Years
TTITLE8=Many Reasons
TTITLE9=I Wouldn't Trade My Shamrock
TTITLE10=Will You Think Of Me
TTITLE11=Dance Of Lonely Strangers
TTITLE12=Rainy Days And Stormy Nights
TTITLE13=More Precious Than Ever
EXTD=
EXTT0=
EXTT1=
EXTT2=
EXTT3=
EXTT4=
EXTT5=
EXTT6=
EXTT7=
EXTT8=
EXTT9=
EXTT10=
EXTT11=
EXTT12=
EXTT13=
PLAYORDER=
